<?xml version="1.0" encoding="UTF-8"?>
<svg width="18px" height="24px" viewBox="0 0 18 24" version="1.1" xmlns="http://www.w3.org/2000/svg" xmlns:xlink="http://www.w3.org/1999/xlink">
    <!-- Generator: sketchtool 55.1 (78136) - https://sketchapp.com -->
    <title>8A965705-61D8-4EA0-B0F9-84E0434F9BD4</title>
    <desc>Created with sketchtool.</desc>
    <g id="Symbols" stroke="none" stroke-width="1" fill="none" fill-rule="evenodd">
        <g id="Footer-3" transform="translate(-360.000000, -106.000000)" fill="#BCC2C4" fill-rule="nonzero">
            <g id="Footer-2-Copy">
                <g id="Group" transform="translate(316.000000, 106.000000)">
                    <g id="logo-angellist" transform="translate(44.000000, 0.000000)">
                        <path d="M0.2014725,17.0352938 C0.2014725,15.1180275 1.01594625,14.1058312 2.6014725,13.6705875 C2.3504925,13.0431338 2.2250025,12.5803913 2.2250025,12.2823525 C2.2250025,11.17905 3.619185,9.8117625 4.67206125,9.8117625 C4.9387275,9.8117625 5.2524525,9.8823525 5.61323625,10.0235288 C4.86029625,7.87450875 4.31911875,6.243135 3.9897075,5.12941125 C3.55962375,3.67788 2.98392,1.7903325 3.9897075,0.6588225 C4.38186375,0.2196075 4.907355,0 5.5661775,0 C6.6955875,0 8.05245,2.31372375 9.636765,6.941175 L10.0367662,8.09411625 C10.6369312,6.5937075 12.4786425,0.44705625 14.5544138,0.44705625 C15.1818675,0.44705625 15.6759825,0.6588225 16.0367663,1.08235125 C17.0510063,2.22337125 16.4532975,3.91302 16.0367663,5.3882325 C15.707355,6.53332875 15.1897088,8.1019575 14.4838237,10.094115 C15.3779438,10.3137225 16.02108,10.7372512 16.4132363,11.364705 C16.836765,12.0392137 17.0485312,13.0823512 17.0485312,14.4941175 C17.0485312,17.2862737 16.21716,19.568625 14.5544138,21.341175 C12.860295,23.113725 10.711275,24 8.10735375,24 C4.89154125,24 2.06725125,22.1111325 0.81323625,19.5529425 C0.40539375,18.7058813 0.2014725,17.866665 0.2014725,17.0352938 Z M1.73088375,16.917645 C1.73088375,17.9005162 2.3870175,19.0868738 2.9779425,19.88235 C4.36206375,21.6715763 6.17198625,22.4470538 8.29558875,22.4470538 C10.3191187,22.4470538 12.0210787,21.6862687 13.4014725,20.1647025 C14.76618,18.6588188 15.44853,16.7529375 15.44853,14.447055 C15.44853,13.6584413 15.4464075,12.4788487 14.8602937,11.976465 C14.436765,11.6156812 13.60539,11.3019562 12.3661762,11.03529 C11.1269625,10.7529375 9.80931375,10.6117613 8.41323375,10.6117613 C7.87369875,10.6117613 7.58970375,10.6932188 7.58970375,11.223525 C7.58970375,11.8666612 7.9504875,12.3215663 8.67205875,12.5882325 C9.45637125,12.9176438 10.7504888,13.0823513 12.5544112,13.0823513 L13.2132337,13.0823513 C13.5820125,13.0823513 13.9094625,13.2750037 14.0132325,14.070585 C13.3368337,14.7469838 12.2226487,14.8377788 11.4720562,15.4117613 C10.8446062,15.8666625 10.3426462,16.40784 9.9661725,17.03529 C9.60538875,17.6470538 9.42499875,18.227445 9.42499875,18.7764675 C9.42499875,19.1058788 9.50343,19.50588 9.6602925,19.9764675 C9.83284125,20.4941138 9.919095,20.83137 9.919095,20.9882325 C9.914955,21.1338525 9.872055,21.23529 9.69561375,21.30588 C8.9662125,21.4705875 8.63284125,21.1137225 8.3191125,20.517645 C8.05244625,20.015685 7.903425,19.372545 7.8720525,18.5882325 C7.77706875,18.6198938 7.43315625,18.6117613 7.330875,18.6117613 C7.34656125,18.690195 7.35440625,18.7843125 7.35440625,18.8941163 C7.35440625,19.3647038 7.17401625,19.764705 6.81322875,20.0941163 C6.452445,20.4235275 6.02891625,20.588235 5.54263875,20.588235 C4.805385,20.588235 4.06028625,20.2352925 3.30734625,19.5294113 C2.55440625,18.8078438 2.1779325,18.1019588 2.1779325,17.4117638 C2.1779325,17.00223 2.35312875,16.7895075 2.6249925,16.5176438 C3.01714875,17.0039175 3.283815,17.3411738 3.42499125,17.5294088 C4.08381375,18.4548975 4.679895,18.9176438 5.2132275,18.9176438 C5.512695,18.9176438 5.754405,18.6957825 5.754405,18.5411738 C5.754405,18.4156838 5.6602875,18.1882313 5.4720525,17.85882 C5.1968175,17.3427563 4.11100875,15.9033563 3.54264,15.4352925 C3.30734625,15.215685 3.1347975,15.1058813 3.02499375,15.1058813 C2.4955425,15.1058812 1.73088375,15.78546 1.73088375,16.917645 Z M3.8485275,12.4235288 C3.8485275,12.62745 3.9740175,12.9803925 4.2249975,13.4823525 C4.6876275,14.3745638 5.7752925,15.8141438 6.60147,16.541175 C6.97794,16.8549 7.2602925,17.0117625 7.4485275,17.0117625 C7.68996,17.0117625 7.94264625,16.7246213 7.94264625,16.4705888 C7.94264625,16.2823538 7.80147,15.8274525 7.5191175,15.1058813 C7.13047125,14.162025 6.30384,12.4344788 5.51911875,11.7882338 C5.26813875,11.55294 5.025,11.4352913 4.78970625,11.4352913 C4.45401375,11.4352913 3.8485275,12.0503588 3.8485275,12.4235288 Z M4.907355,2.25882375 C4.907355,2.79215625 5.09559,3.6313725 5.47206,4.7764725 C5.8171575,5.89019625 6.33480375,7.38039375 7.0250025,9.24706125 C7.3802925,9.03388875 8.240625,9.1351125 8.69559,9.176475 L7.07206125,4.4705925 C6.6328425,3.215685 6.287745,2.4 6.036765,2.02353 C5.83284375,1.69411875 5.6289225,1.52941125 5.42500125,1.52941125 C5.08375875,1.52941125 4.907355,1.91478 4.907355,2.25882375 Z M8.813235,14.2588237 C8.95441125,14.6196075 9.1034325,15.0117638 9.260295,15.4352962 C9.57402,15.0745125 9.887745,14.7764737 10.20147,14.5411762 C9.72285375,14.44545 9.33762,14.4336187 8.813235,14.2588237 Z M11.2838212,9.45882375 L12.8602912,9.74117625 C13.5661725,7.7960775 14.10735,6.23529375 14.48382,5.058825 C14.7007237,4.3560525 15.3291562,2.75408625 14.9073487,2.211765 C14.7647625,1.96224 14.3253788,1.88762625 13.8249937,2.6823525 C13.526955,3.13725375 13.1897025,3.92941125 12.8132288,5.058825 L11.2838212,9.45882375 Z" id="Shape"></path>
                    </g>
                </g>
            </g>
        </g>
    </g>
</svg>