<?xml version="1.0" encoding="UTF-8"?>
<svg width="18px" height="18px" viewBox="0 0 18 18" version="1.1" xmlns="http://www.w3.org/2000/svg" xmlns:xlink="http://www.w3.org/1999/xlink">
    <!-- Generator: sketchtool 55.1 (78136) - https://sketchapp.com -->
    <title>0346567F-6C27-4216-A5B4-AAD5A4199012</title>
    <desc>Created with sketchtool.</desc>
    <g id="Symbols" stroke="none" stroke-width="1" fill="none" fill-rule="evenodd">
        <g id="Footer-3" transform="translate(-1055.000000, -171.000000)" fill="#BCC2C4" fill-rule="nonzero">
            <g id="Footer-2-Copy">
                <g id="Group" transform="translate(1055.000000, 171.000000)">
                    <g id="logo-facebook">
                        <path d="M16.5,0 L1.5,0 C0.67125,0 0,0.67125 0,1.5 L0,16.5 C0,17.32875 0.67125,18 1.5,18 L9.75,18 L9.75,11.25 L7.5,11.25 L7.5,8.25 L9.75,8.25 L9.75,6.30975 C9.75,3.98475 11.16975,2.71875 13.24425,2.71875 C14.238,2.71875 15.0915,2.793 15.3405,2.826 L15.3405,5.256 L13.902,5.25675 C12.774,5.25675 12.55575,5.793 12.55575,6.579 L12.55575,8.25 L15.88575,8.25 L15.13575,11.25 L12.55575,11.25 L12.55575,18 L16.5,18 C17.32875,18 18,17.32875 18,16.5 L18,1.5 C18,0.67125 17.32875,0 16.5,0 Z" id="Path"></path>
                    </g>
                </g>
            </g>
        </g>
    </g>
</svg>