<?xml version="1.0" encoding="UTF-8"?>
<svg width="16px" height="16px" viewBox="0 0 16 16" version="1.1" xmlns="http://www.w3.org/2000/svg" xmlns:xlink="http://www.w3.org/1999/xlink">
    <!-- Generator: sketchtool 55.1 (78136) - https://sketchapp.com -->
    <title>09AA2EA3-B4CF-4D7E-8527-92D69E5776F5</title>
    <desc>Created with sketchtool.</desc>
    <g id="Symbols" stroke="none" stroke-width="1" fill="none" fill-rule="evenodd">
        <g id="Footer-3" transform="translate(-1015.000000, -128.000000)" fill="#FFFFFF" fill-rule="nonzero">
            <g id="Footer-2-Copy">
                <g id="ico_mail" transform="translate(1015.000000, 128.000000)">
                    <path d="M15.707,0.293 C15.434,0.021 15.027,-0.072 14.664,0.059 L0.664,5.059 C0.287,5.193 0.026,5.54 0.002,5.939 C-0.022,6.339 0.194,6.714 0.553,6.894 L5.139,9.186 L11,5 L6.813,10.862 L9.105,15.448 C9.276,15.787 9.623,16 10,16 C10.021,16 10.041,15.999 10.061,15.998 C10.461,15.974 10.808,15.714 10.943,15.336 L15.943,1.336 C16.072,0.973 15.98,0.566 15.707,0.293 Z" id="Path"></path>
                </g>
            </g>
        </g>
    </g>
</svg>