<?xml version="1.0" encoding="UTF-8"?>
<svg width="16px" height="16px" viewBox="0 0 16 16" version="1.1" xmlns="http://www.w3.org/2000/svg" xmlns:xlink="http://www.w3.org/1999/xlink">
    <!-- Generator: sketchtool 55.1 (78136) - https://sketchapp.com -->
    <title>CD76BC15-6ED1-4347-97E7-C9DCEAB0A3EA</title>
    <desc>Created with sketchtool.</desc>
    <g id="Symbols" stroke="none" stroke-width="1" fill="none" fill-rule="evenodd">
        <g id="Footer-3" transform="translate(-1017.000000, -80.000000)" fill="#FFFFFF" fill-rule="nonzero">
            <g id="Footer-2-Copy">
                <g id="ico_phone" transform="translate(1017.000000, 80.000000)">
                    <path d="M15.285,12.305 L12.707,9.711 C12.317,9.318 11.682,9.318 11.291,9.709 L9,12 L4,7 L6.294,4.706 C6.684,4.316 6.685,3.683 6.295,3.292 L3.715,0.708 C3.324,0.317 2.691,0.317 2.3,0.708 L0.004,3.003 L0,3 C0,10.18 5.82,16 13,16 L15.283,13.717 C15.673,13.327 15.674,12.696 15.285,12.305 Z" id="Path"></path>
                    <path d="M16,8 L14,8 C14,4.691 11.309,2 8,2 L8,0 C12.411,0 16,3.589 16,8 Z" id="Path"></path>
                    <path d="M12,8 L10,8 C10,6.897 9.103,6 8,6 L8,4 C10.206,4 12,5.794 12,8 Z" id="Path"></path>
                </g>
            </g>
        </g>
    </g>
</svg>