<?xml version="1.0" encoding="UTF-8"?>
<svg width="18px" height="15px" viewBox="0 0 18 15" version="1.1" xmlns="http://www.w3.org/2000/svg" xmlns:xlink="http://www.w3.org/1999/xlink">
    <!-- Generator: sketchtool 55.1 (78136) - https://sketchapp.com -->
    <title>05A403CC-884B-4C29-87DB-656E2827AA2A</title>
    <desc>Created with sketchtool.</desc>
    <g id="Symbols" stroke="none" stroke-width="1" fill="none" fill-rule="evenodd">
        <g id="Footer-3" transform="translate(-1129.000000, -173.000000)" fill="#BCC2C4" fill-rule="nonzero">
            <g id="Footer-2-Copy">
                <g id="Group" transform="translate(1055.000000, 171.000000)">
                    <g id="logo-twitter" transform="translate(73.500000, 2.250000)">
                        <path d="M18,1.69090909 C17.3454545,1.96363636 16.6909091,2.18181818 15.9272727,2.23636364 C16.6909091,1.8 17.2363636,1.09090909 17.5090909,0.272727273 C16.8,0.709090909 16.0363636,0.981818182 15.2181818,1.14545455 C14.5636364,0.436363636 13.6363636,0 12.6545455,0 C10.6909091,0 9.05454545,1.58181818 9.05454545,3.6 C9.05454545,3.87272727 9.10909091,4.14545455 9.16363636,4.41818182 C6.16363636,4.25454545 3.54545455,2.83636364 1.74545455,0.654545455 C1.41818182,1.2 1.25454545,1.8 1.25454545,2.45454545 C1.25454545,3.70909091 1.90909091,4.8 2.83636364,5.45454545 C2.23636364,5.45454545 1.69090909,5.29090909 1.2,5.01818182 C1.2,5.01818182 1.2,5.07272727 1.2,5.07272727 C1.2,6.81818182 2.45454545,8.23636364 4.09090909,8.56363636 C3.76363636,8.61818182 3.49090909,8.67272727 3.16363636,8.67272727 C2.94545455,8.67272727 2.72727273,8.67272727 2.50909091,8.61818182 C2.94545455,10.0363636 4.30909091,11.0727273 5.83636364,11.1272727 C4.63636364,12.1090909 3.05454545,12.6545455 1.36363636,12.6545455 C1.09090909,12.6545455 0.763636364,12.6545455 0.490909091,12.6 C2.12727273,13.5818182 4.03636364,14.1818182 6.05454545,14.1818182 C12.6545455,14.1818182 16.2545455,8.72727273 16.2545455,3.98181818 C16.2545455,3.81818182 16.2545455,3.65454545 16.2545455,3.54545455 C16.9090909,3 17.5090909,2.4 18,1.69090909 Z" id="Path"></path>
                    </g>
                </g>
            </g>
        </g>
    </g>
</svg>